<svg width="1000" height="400" viewBox="0 0 1000 400" fill="none" xmlns="http://www.w3.org/2000/svg">
<path d="M322.144 272.728C323.726 272.728 325.011 271.441 325 269.854C324.724 228.554 318.509 187.701 306.685 149.527C295 111.801 278.059 77.4037 256.774 48.1625C255.648 46.6148 253.355 46.615 252.209 48.1481L87.72 268.129C86.3031 270.024 87.6511 272.728 90.0127 272.728H322.144Z" fill="url(#paint0_radial_86_65)"/>
<path d="M254.502 364.148C254.502 365.736 253.217 367.025 251.634 367C189.436 366.01 129.917 332.853 85.5812 274.454C84.8096 273.438 84.8065 272.026 85.5707 271.004L249.343 51.9807C250.996 49.7708 254.502 50.943 254.502 53.7054L254.502 364.148Z" fill="url(#paint1_radial_86_65)"/>
<path d="M400 260.268V142H478.342V162.616H425.016V190.797H473.142V211.413H425.016V260.268H400Z" fill="black"/>
<path d="M533.169 262C524.195 262 516.434 260.094 509.886 256.283C503.377 252.433 498.35 247.082 494.807 240.229C491.263 233.338 489.491 225.349 489.491 216.264C489.491 207.101 491.263 199.093 494.807 192.241C498.35 185.349 503.377 179.998 509.886 176.187C516.434 172.337 524.195 170.412 533.169 170.412C542.143 170.412 549.885 172.337 556.394 176.187C562.942 179.998 567.988 185.349 571.531 192.241C575.075 199.093 576.846 207.101 576.846 216.264C576.846 225.349 575.075 233.338 571.531 240.229C567.988 247.082 562.942 252.433 556.394 256.283C549.885 260.094 542.143 262 533.169 262ZM533.284 242.943C537.367 242.943 540.776 241.788 543.51 239.478C546.245 237.13 548.306 233.935 549.692 229.892C551.117 225.85 551.83 221.249 551.83 216.09C551.83 210.932 551.117 206.331 549.692 202.289C548.306 198.246 546.245 195.051 543.51 192.703C540.776 190.354 537.367 189.18 533.284 189.18C529.163 189.18 525.697 190.354 522.885 192.703C520.112 195.051 518.013 198.246 516.588 202.289C515.201 206.331 514.508 210.932 514.508 216.09C514.508 221.249 515.201 225.85 516.588 229.892C518.013 233.935 520.112 237.13 522.885 239.478C525.697 241.788 529.163 242.943 533.284 242.943Z" fill="black"/>
<path d="M597.731 260.268V171.567H621.591V187.043H622.516C624.134 181.538 626.849 177.38 630.662 174.57C634.475 171.721 638.866 170.296 643.835 170.296C645.067 170.296 646.396 170.373 647.821 170.527C649.246 170.681 650.498 170.893 651.576 171.163V192.991C650.421 192.645 648.822 192.337 646.781 192.067C644.74 191.798 642.872 191.663 641.177 191.663C637.556 191.663 634.321 192.452 631.471 194.031C628.659 195.571 626.425 197.727 624.769 200.499C623.151 203.27 622.343 206.466 622.343 210.085V260.268H597.731Z" fill="black"/>
<path d="M785.264 142H810.28V218.805C810.28 227.428 808.22 234.974 804.098 241.442C800.016 247.91 794.296 252.953 786.939 256.572C779.583 260.152 771.013 261.942 761.23 261.942C751.408 261.942 742.819 260.152 735.462 256.572C728.106 252.953 722.386 247.91 718.303 241.442C714.221 234.974 712.179 227.428 712.179 218.805V142H737.196V216.668C737.196 221.172 738.178 225.176 740.142 228.68C742.145 232.183 744.957 234.936 748.577 236.937C752.198 238.939 756.415 239.94 761.23 239.94C766.083 239.94 770.3 238.939 773.882 236.937C777.503 234.936 780.295 232.183 782.26 228.68C784.263 225.176 785.264 221.172 785.264 216.668V142Z" fill="black"/>
<path d="M863.2 142V260.268H838.184V142H863.2Z" fill="black"/>
<defs>
<radialGradient id="paint0_radial_86_65" cx="0" cy="0" r="1" gradientUnits="userSpaceOnUse" gradientTransform="translate(85 367) rotate(90) scale(452.548 240)">
<stop stop-color="#00D28E"/>
<stop offset="1" stop-color="#5CD6AE" stop-opacity="0"/>
<stop offset="1" stop-color="#00D28E" stop-opacity="0"/>
</radialGradient>
<radialGradient id="paint1_radial_86_65" cx="0" cy="0" r="1" gradientUnits="userSpaceOnUse" gradientTransform="translate(254.502 45.0827) rotate(90) scale(321.94 240.728)">
<stop stop-color="#00AEED"/>
<stop offset="1" stop-color="#00AEED" stop-opacity="0"/>
</radialGradient>
</defs>
</svg>
