<svg width="24" height="24" viewBox="0 0 24 24" fill="none" xmlns="http://www.w3.org/2000/svg"><path d="M20.7454 1L17.0096 5.9284L11.8746 3.75477L20.7454 1Z" fill="#FFB533"/><path d="M20.4902 7.40461V12.3769C20.4902 17.6611 16.9063 21.5788 11.8727 23C6.83701 21.5788 3.25258 17.6611 3.25258 12.3769V7.40461L6.7377 5.93079L9.39329 9.43214L7.69089 10.2366V12.3769C7.69089 15.3555 9.31642 17.4931 11.8727 18.1569C14.4267 17.4931 16.0519 15.3555 16.0519 12.3769V10.2366L14.3522 9.43214L17.0082 5.93079L20.4902 7.40461Z" fill="#065CC4"/><path d="M6.73703 5.92088L9.39298 9.42223L11.8725 8.24859L14.3515 9.42223L17.0075 5.92088L11.8725 3.74738L6.73703 5.92088Z" fill="url(#paint0_linear_2424_11307)"/><path d="M11.8735 3.75477L6.73852 5.9284L3 1L11.8735 3.75477Z" fill="#FFB533"/><defs><linearGradient id="paint0_linear_2424_11307" x1="6.73709" y1="6.58472" x2="17.0074" y2="6.58472" gradientUnits="userSpaceOnUse"><stop stop-color="#DD6F56"/><stop offset="1" stop-color="#FFB533"/></linearGradient></defs></svg>
